<?xml version="1.0" standalone="no"?>
<svg viewBox="0 0 200 200" xmlns="http://www.w3.org/2000/svg">
  <path fill="#FF0066" d="M29.9,-54.1C41.2,-45.2,54.5,-42.2,61.8,-34.2C69.1,-26.1,70.3,-13.1,71,0.4C71.8,13.9,72.1,27.9,68.4,42C64.6,56.2,56.8,70.5,44.7,72C32.7,73.5,16.3,62.1,0.7,60.9C-14.9,59.7,-29.9,68.7,-42.3,67.4C-54.7,66.1,-64.6,54.6,-71.9,41.6C-79.2,28.7,-83.8,14.3,-83.8,0C-83.8,-14.4,-79.2,-28.7,-72.1,-41.8C-64.9,-55,-55.2,-66.8,-42.7,-75.1C-30.3,-83.3,-15.1,-88,-2.9,-82.9C9.3,-77.8,18.5,-63,29.9,-54.1Z" transform="translate(100 100)" />
</svg>
